<?xml version="1.0" encoding="UTF-8"?>
<svg xmlns="http://www.w3.org/2000/svg" xmlns:xlink="http://www.w3.org/1999/xlink" width="60px" height="33px" viewBox="0 0 59 33" version="1.1">
<g id="surface1">
<path style=" stroke:none;fill-rule:evenodd;fill:rgb(99.215686%,99.215686%,99.215686%);fill-opacity:1;" d="M -0.03125 -0.03125 C 19.636719 -0.03125 39.300781 -0.03125 58.96875 -0.03125 C 58.96875 10.96875 58.96875 21.96875 58.96875 32.96875 C 39.300781 32.96875 19.636719 32.96875 -0.03125 32.96875 C -0.03125 21.96875 -0.03125 10.96875 -0.03125 -0.03125 Z M -0.03125 -0.03125 "/>
<path style=" stroke:none;fill-rule:evenodd;fill:rgb(0.784314%,0.784314%,0.784314%);fill-opacity:1;" d="M 28.972656 9.40625 C 30.265625 11.800781 31.648438 14.136719 33.125 16.40625 C 34.167969 18.464844 35.304688 20.464844 36.535156 22.40625 C 37.851562 24.753906 39.214844 27.066406 40.625 29.34375 C 40.632812 29.617188 40.550781 29.855469 40.375 30.0625 C 37.917969 30.09375 35.460938 30.105469 33 30.09375 C 32.882812 30.019531 32.789062 29.917969 32.722656 29.78125 C 31.578125 27.621094 30.328125 25.539062 28.972656 23.53125 C 27.691406 21.03125 26.285156 18.617188 24.757812 16.28125 C 23.621094 14.570312 22.546875 12.820312 21.535156 11.03125 C 21.460938 10.859375 21.367188 10.691406 21.257812 10.53125 C 21.210938 10.433594 21.136719 10.371094 21.039062 10.34375 C 20.039062 8.503906 18.964844 6.710938 17.816406 4.96875 C 17.625 4.722656 17.480469 4.453125 17.382812 4.15625 C 17.453125 3.707031 17.636719 3.308594 17.941406 2.96875 C 20.171875 2.882812 22.40625 2.894531 24.636719 3 C 24.824219 3.09375 25 3.207031 25.160156 3.34375 C 26.421875 5.375 27.695312 7.394531 28.972656 9.40625 Z M 28.972656 9.40625 "/>
<path style=" stroke:none;fill-rule:evenodd;fill:rgb(0.392157%,0.392157%,0.392157%);fill-opacity:1;" d="M 40.003906 3.09375 C 42.644531 7.390625 45.234375 11.726562 47.78125 16.09375 C 47.917969 16.21875 48.070312 16.300781 48.246094 16.34375 C 48.28125 16.515625 48.332031 16.683594 48.402344 16.84375 C 50.808594 21.03125 53.214844 25.21875 55.621094 29.40625 C 55.578125 29.535156 55.523438 29.660156 55.46875 29.78125 C 53.914062 29.875 52.351562 29.914062 50.789062 29.90625 C 49.730469 29.914062 48.675781 29.882812 47.628906 29.8125 C 46.453125 27.679688 45.253906 25.566406 44.03125 23.46875 C 42.828125 21.035156 41.527344 18.660156 40.128906 16.34375 C 40.273438 16.054688 40.449219 15.785156 40.65625 15.53125 C 40.691406 15.628906 40.746094 15.710938 40.808594 15.78125 C 43.210938 20.324219 45.671875 24.832031 48.183594 29.3125 C 50.375 29.511719 52.5625 29.511719 54.753906 29.3125 C 52.582031 25.605469 50.464844 21.867188 48.402344 18.09375 C 46.808594 15.503906 45.25 12.898438 43.722656 10.28125 C 43.777344 10.046875 43.695312 9.921875 43.476562 9.90625 C 42.226562 7.757812 40.914062 5.652344 39.539062 3.59375 C 37.410156 3.636719 35.28125 3.675781 33.15625 3.71875 C 33.113281 3.800781 33.113281 3.886719 33.15625 3.96875 C 34.460938 5.929688 35.730469 7.910156 36.96875 9.90625 C 36.882812 9.894531 36.800781 9.90625 36.71875 9.9375 C 36.675781 10.066406 36.613281 10.179688 36.535156 10.28125 C 35.210938 8.066406 33.765625 5.941406 32.195312 3.90625 C 32.210938 3.609375 32.316406 3.347656 32.503906 3.125 C 35.003906 3.09375 37.503906 3.082031 40.003906 3.09375 Z M 40.003906 3.09375 "/>
<path style=" stroke:none;fill-rule:evenodd;fill:rgb(49.019608%,49.411765%,49.019608%);fill-opacity:1;" d="M 40.003906 3.09375 C 45.375 3.074219 50.746094 3.09375 56.117188 3.15625 C 53.703125 7.53125 51.128906 11.800781 48.402344 15.96875 C 48.332031 16.089844 48.28125 16.214844 48.246094 16.34375 C 48.070312 16.300781 47.917969 16.21875 47.78125 16.09375 C 45.234375 11.726562 42.644531 7.390625 40.003906 3.09375 Z M 40.003906 3.09375 "/>
<path style=" stroke:none;fill-rule:evenodd;fill:rgb(99.607843%,99.607843%,99.607843%);fill-opacity:1;" d="M 18.3125 3.46875 C 20.359375 3.457031 22.402344 3.46875 24.449219 3.5 C 24.566406 3.523438 24.671875 3.574219 24.757812 3.65625 C 29.902344 12.183594 34.941406 20.777344 39.878906 29.4375 C 39.871094 29.484375 39.851562 29.527344 39.820312 29.5625 C 37.710938 29.625 35.605469 29.644531 33.496094 29.625 C 32.605469 28.046875 31.707031 26.472656 30.800781 24.90625 C 29.941406 23.714844 29.179688 22.464844 28.507812 21.15625 C 25.101562 15.65625 21.691406 10.15625 18.28125 4.65625 C 18.105469 4.34375 18.042969 4.011719 18.097656 3.65625 C 18.167969 3.585938 18.238281 3.523438 18.3125 3.46875 Z M 18.3125 3.46875 "/>
<path style=" stroke:none;fill-rule:evenodd;fill:rgb(99.215686%,99.215686%,99.215686%);fill-opacity:1;" d="M 43.476562 9.90625 C 41.296875 9.90625 39.128906 9.90625 36.96875 9.90625 C 35.730469 7.910156 34.460938 5.929688 33.15625 3.96875 C 33.113281 3.886719 33.113281 3.800781 33.15625 3.71875 C 35.28125 3.675781 37.410156 3.636719 39.539062 3.59375 C 40.914062 5.652344 42.226562 7.757812 43.476562 9.90625 Z M 43.476562 9.90625 "/>
<path style=" stroke:none;fill-rule:evenodd;fill:rgb(49.411765%,49.803922%,49.411765%);fill-opacity:1;" d="M 32.195312 3.90625 C 33.765625 5.941406 35.210938 8.066406 36.535156 10.28125 C 36.171875 11.035156 35.789062 11.785156 35.386719 12.53125 C 34.667969 13.796875 33.933594 15.046875 33.1875 16.28125 C 33.136719 16.300781 33.113281 16.34375 33.125 16.40625 C 31.648438 14.136719 30.265625 11.800781 28.972656 9.40625 C 30.203125 7.671875 31.277344 5.839844 32.195312 3.90625 Z M 32.195312 3.90625 "/>
<path style=" stroke:none;fill-rule:evenodd;fill:rgb(49.803922%,50.196081%,49.803922%);fill-opacity:1;" d="M 17.382812 4.15625 C 17.480469 4.453125 17.625 4.722656 17.816406 4.96875 C 17.695312 5.042969 17.605469 5.148438 17.539062 5.28125 C 12.582031 13.265625 7.699219 21.296875 2.882812 29.375 C 5.085938 29.507812 7.285156 29.496094 9.480469 29.34375 C 13.382812 23.039062 17.234375 16.703125 21.039062 10.34375 C 21.136719 10.371094 21.210938 10.433594 21.257812 10.53125 C 21.367188 10.691406 21.460938 10.859375 21.535156 11.03125 C 17.6875 17.367188 13.785156 23.667969 9.824219 29.9375 C 7.179688 29.96875 4.535156 29.980469 1.890625 29.96875 C 1.882812 29.773438 1.910156 29.585938 1.984375 29.40625 C 6.984375 21.238281 11.921875 13.03125 16.796875 4.78125 C 17.007812 4.578125 17.203125 4.367188 17.382812 4.15625 Z M 17.382812 4.15625 "/>
<path style=" stroke:none;fill-rule:evenodd;fill:rgb(99.215686%,99.607843%,99.215686%);fill-opacity:1;" d="M 17.816406 4.96875 C 18.964844 6.710938 20.039062 8.503906 21.039062 10.34375 C 17.234375 16.703125 13.382812 23.039062 9.480469 29.34375 C 7.285156 29.496094 5.085938 29.507812 2.882812 29.375 C 7.699219 21.296875 12.582031 13.265625 17.539062 5.28125 C 17.605469 5.148438 17.695312 5.042969 17.816406 4.96875 Z M 17.816406 4.96875 "/>
<path style=" stroke:none;fill-rule:evenodd;fill:rgb(76.47059%,76.47059%,76.47059%);fill-opacity:1;" d="M 36.96875 9.90625 C 39.128906 9.90625 41.296875 9.90625 43.476562 9.90625 C 43.695312 9.921875 43.777344 10.046875 43.722656 10.28125 C 42.703125 11.964844 41.742188 13.691406 40.839844 15.46875 C 40.8125 15.570312 40.800781 15.675781 40.808594 15.78125 C 40.746094 15.710938 40.691406 15.628906 40.65625 15.53125 C 40.449219 15.785156 40.273438 16.054688 40.128906 16.34375 C 40.023438 16.34375 39.921875 16.34375 39.820312 16.34375 C 37.617188 16.28125 35.410156 16.261719 33.1875 16.28125 C 33.933594 15.046875 34.667969 13.796875 35.386719 12.53125 C 35.789062 11.785156 36.171875 11.035156 36.535156 10.28125 C 36.613281 10.179688 36.675781 10.066406 36.71875 9.9375 C 36.800781 9.90625 36.882812 9.894531 36.96875 9.90625 Z M 36.96875 9.90625 "/>
<path style=" stroke:none;fill-rule:evenodd;fill:rgb(99.215686%,99.215686%,99.215686%);fill-opacity:1;" d="M 43.722656 10.28125 C 45.25 12.898438 46.808594 15.503906 48.402344 18.09375 C 50.464844 21.867188 52.582031 25.605469 54.753906 29.3125 C 52.5625 29.511719 50.375 29.511719 48.183594 29.3125 C 45.671875 24.832031 43.210938 20.324219 40.808594 15.78125 C 40.800781 15.675781 40.8125 15.570312 40.839844 15.46875 C 41.742188 13.691406 42.703125 11.964844 43.722656 10.28125 Z M 43.722656 10.28125 "/>
<path style=" stroke:none;fill-rule:evenodd;fill:rgb(49.411765%,49.803922%,49.411765%);fill-opacity:1;" d="M 24.757812 16.28125 C 26.285156 18.617188 27.691406 21.03125 28.972656 23.53125 C 27.652344 25.71875 26.332031 27.90625 25.007812 30.09375 C 22.363281 30.09375 19.71875 30.09375 17.074219 30.09375 C 17.054688 29.855469 17.085938 29.625 17.167969 29.40625 C 19.777344 25.078125 22.308594 20.703125 24.757812 16.28125 Z M 24.757812 16.28125 "/>
<path style=" stroke:none;fill-rule:evenodd;fill:rgb(98.431373%,98.431373%,98.431373%);fill-opacity:1;" d="M 33.1875 16.28125 C 35.410156 16.261719 37.617188 16.28125 39.820312 16.34375 C 38.769531 18.398438 37.675781 20.417969 36.535156 22.40625 C 35.304688 20.464844 34.167969 18.464844 33.125 16.40625 C 33.113281 16.34375 33.136719 16.300781 33.1875 16.28125 Z M 33.1875 16.28125 "/>
<path style=" stroke:none;fill-rule:evenodd;fill:rgb(49.411765%,49.803922%,49.411765%);fill-opacity:1;" d="M 39.820312 16.34375 C 39.921875 16.34375 40.023438 16.34375 40.128906 16.34375 C 41.527344 18.660156 42.828125 21.035156 44.03125 23.46875 C 42.800781 25.367188 41.664062 27.324219 40.625 29.34375 C 39.214844 27.066406 37.851562 24.753906 36.535156 22.40625 C 37.675781 20.417969 38.769531 18.398438 39.820312 16.34375 Z M 39.820312 16.34375 "/>
<path style=" stroke:none;fill-rule:evenodd;fill:rgb(76.47059%,76.47059%,76.47059%);fill-opacity:1;" d="M 28.972656 23.53125 C 30.328125 25.539062 31.578125 27.621094 32.722656 29.78125 C 32.789062 29.917969 32.882812 30.019531 33 30.09375 C 30.335938 30.09375 27.671875 30.09375 25.007812 30.09375 C 26.332031 27.90625 27.652344 25.71875 28.972656 23.53125 Z M 28.972656 23.53125 "/>
</g>
</svg>
