<?xml version="1.0" encoding="UTF-8"?>
<svg xmlns="http://www.w3.org/2000/svg" xmlns:xlink="http://www.w3.org/1999/xlink" width="50px" height="50px" viewBox="0 0 50 50" version="1.1">
<g id="surface1">
<path style=" stroke:none;fill-rule:nonzero;fill:rgb(19.215687%,47.058824%,77.64706%);fill-opacity:1;" d="M 4.882812 0 L 45.117188 0 C 47.8125 0 50 2.1875 50 4.882812 L 50 45.117188 C 50 47.8125 47.8125 50 45.117188 50 L 4.882812 50 C 2.1875 50 0 47.8125 0 45.117188 L 0 4.882812 C 0 2.1875 2.1875 0 4.882812 0 Z M 4.882812 0 "/>
<path style=" stroke:none;fill-rule:nonzero;fill:rgb(19.215687%,47.058824%,77.64706%);fill-opacity:1;" d="M 4.882812 0 L 45.117188 0 C 47.8125 0 50 2.1875 50 4.882812 L 50 45.117188 C 50 47.8125 47.8125 50 45.117188 50 L 4.882812 50 C 2.1875 50 0 47.8125 0 45.117188 L 0 4.882812 C 0 2.1875 2.1875 0 4.882812 0 Z M 4.882812 0 "/>
<path style=" stroke:none;fill-rule:evenodd;fill:rgb(100%,100%,100%);fill-opacity:1;" d="M 30.949219 39.789062 L 30.949219 44.675781 C 31.746094 45.082031 32.6875 45.390625 33.769531 45.59375 C 34.855469 45.796875 36 45.898438 37.203125 45.898438 C 38.375 45.898438 39.488281 45.785156 40.542969 45.5625 C 41.597656 45.339844 42.519531 44.96875 43.316406 44.453125 C 44.109375 43.941406 44.738281 43.269531 45.203125 42.4375 C 45.667969 41.609375 45.898438 40.582031 45.898438 39.359375 C 45.898438 38.472656 45.765625 37.695312 45.5 37.03125 C 45.234375 36.363281 44.855469 35.769531 44.355469 35.25 C 43.855469 34.730469 43.257812 34.265625 42.558594 33.851562 C 41.859375 33.441406 41.074219 33.050781 40.199219 32.683594 C 39.554688 32.417969 38.980469 32.160156 38.46875 31.914062 C 37.960938 31.664062 37.527344 31.40625 37.171875 31.148438 C 36.816406 30.886719 36.539062 30.613281 36.347656 30.324219 C 36.152344 30.03125 36.054688 29.703125 36.054688 29.335938 C 36.054688 29 36.140625 28.699219 36.316406 28.429688 C 36.488281 28.160156 36.734375 27.925781 37.050781 27.734375 C 37.363281 27.539062 37.753906 27.390625 38.210938 27.28125 C 38.667969 27.175781 39.179688 27.121094 39.738281 27.121094 C 40.148438 27.121094 40.578125 27.152344 41.03125 27.214844 C 41.484375 27.273438 41.941406 27.371094 42.398438 27.496094 C 42.855469 27.625 43.300781 27.785156 43.734375 27.976562 C 44.167969 28.171875 44.570312 28.394531 44.933594 28.652344 L 44.933594 24.082031 C 44.191406 23.796875 43.378906 23.585938 42.496094 23.449219 C 41.617188 23.3125 40.605469 23.242188 39.464844 23.242188 C 38.300781 23.242188 37.203125 23.367188 36.164062 23.617188 C 35.125 23.867188 34.210938 24.253906 33.417969 24.785156 C 32.628906 25.316406 32.003906 25.988281 31.546875 26.808594 C 31.089844 27.628906 30.859375 28.609375 30.859375 29.75 C 30.859375 31.207031 31.28125 32.449219 32.121094 33.476562 C 32.960938 34.507812 34.238281 35.378906 35.949219 36.089844 C 36.621094 36.367188 37.246094 36.636719 37.828125 36.898438 C 38.410156 37.164062 38.910156 37.441406 39.335938 37.726562 C 39.757812 38.011719 40.089844 38.320312 40.335938 38.65625 C 40.578125 38.992188 40.703125 39.375 40.703125 39.804688 C 40.703125 40.117188 40.625 40.410156 40.472656 40.679688 C 40.320312 40.953125 40.089844 41.183594 39.777344 41.382812 C 39.464844 41.582031 39.078125 41.738281 38.617188 41.851562 C 38.152344 41.960938 37.609375 42.019531 36.988281 42.019531 C 35.929688 42.019531 34.878906 41.832031 33.839844 41.460938 C 32.800781 41.089844 31.835938 40.53125 30.949219 39.789062 Z M 22.730469 27.742188 L 29.003906 27.742188 L 29.003906 23.730469 L 11.523438 23.730469 L 11.523438 27.742188 L 17.765625 27.742188 L 17.765625 45.605469 L 22.734375 45.605469 Z M 22.730469 27.742188 "/>
</g>
</svg>
